<svg id="Layer_1" data-name="Layer 1" xmlns="http://www.w3.org/2000/svg" viewBox="0 0 694.86 245.48"><defs><style>.cls-1{fill:#ddd;}</style></defs><title>sinking-boat</title><path class="cls-1" d="M973.62,468.28c-6.53,3.67-13,7.4-19.56,11.06q-58.14,32.55-116.3,65.07c-5.62,3.15-5.61,3.17-8.73-2.32L739.32,383.82a15.46,15.46,0,0,0-2.16-3.48,3.14,3.14,0,0,0-2.77-.74,3.08,3.08,0,0,0-.87,2.72,14.81,14.81,0,0,0,1.86,3.65l89.89,158.6c3,5.23,3,5.24-2.25,8.19l-97.86,55.47.37,0a26.13,26.13,0,0,1,4.09-.71c5.75-.59,11.6-.53,17.37-.78,6.12-.27,12.46-.24,18.33,1.74a40.82,40.82,0,0,1,4.93,2c2.07.67,4.12,1.47,6.21,2.34a107.08,107.08,0,0,0,17.26,5.35c12.68,2.88,24.52.45,36.76-2.88,1.64-.56,3.29-1.07,5-1.48a3.67,3.67,0,0,1,1.61-.45,3.53,3.53,0,0,1,1-.09,37.24,37.24,0,0,1,4.29-.52c7.12-.41,14.28,1.07,21.1,2.92,15.11,4.09,31.28,9.78,46.18,1.83,6.39-3.41,12.53-7,19.24-9.78,5.74-2.38,11.61-4.42,17.45-6.54a13.77,13.77,0,0,0,2.39-5.3c4.62-20.29,9.35-40.56,14-60.86q6.07-26.59,12-53.23c1.1-4.91,2.1-9.84,3.35-15.75C976,467.12,974.76,467.64,973.62,468.28Z" transform="translate(-524.22 -378.97)"/><path class="cls-1" d="M740,379l213.66,59c-.86.56-1.91,1.32-3,2Q886.33,476.44,822,512.89c-4.47,2.54-4.64,2.49-7.16-2q-36.47-64.31-72.91-128.62Z" transform="translate(-524.22 -378.97)"/><path class="cls-1" d="M835,613.09a47,47,0,0,1,17.32-8.6,37.82,37.82,0,0,1,20.42,1c3.6,1.15,7.08,2.63,10.58,4.06,2.32.95,4.67,1.55,6.17,3.69,2.57,3.69,4.16,8.12,9.57,7.83a45.66,45.66,0,0,0,9.29-1.92c3.15-.86,6.26-1.89,9.33-3,6.41-2.38,12.65-5.2,18.82-8.15,12.07-5.78,23.9-12.27,36.54-16.73A69.42,69.42,0,0,1,992,587a61,61,0,0,1,21.35,2.73c13.91,4.21,25.71,12.83,39.08,18.28a59.26,59.26,0,0,0,42.79.65c6.91-2.5,13.4-6,20.35-8.43,6.65-2.31,13.57-3.61,20.62-2.79,12.54,1.47,24.1,7.85,35.79,12.2s24.66,7.09,36.85,2.67a32.82,32.82,0,0,0,9.42-5.31c1.27-1,1.06-3.18,0-4.24a3.08,3.08,0,0,0-4.24,0c-10.24,8.16-24.4,6.48-36,2.67-12.06-4-23.37-10.26-35.83-13a48.47,48.47,0,0,0-20.73-.11c-6.92,1.47-13.46,4.34-19.9,7.2-6.67,3-13.44,5.63-20.74,6.55a51.3,51.3,0,0,1-21.57-2c-13.59-4.21-25.21-13.07-38.47-18.15-13.59-5.21-28-6.52-42.07-2.76C952.83,590.13,931,607.31,905,613.87c-1.44.36-2.89.69-4.36,1a11,11,0,0,1-2.59.25c-.63-.2-.78-.54-1.12-1-.58-.84-1-1.78-1.55-2.66a14.11,14.11,0,0,0-4.86-5.23c-3-1.75-6.65-2.82-9.87-4.11-6.79-2.72-13.82-4.76-21.2-4.53a45.06,45.06,0,0,0-19.13,5.09,56.18,56.18,0,0,0-8.34,5.29,3.09,3.09,0,0,0-1.08,4.1c.74,1.28,2.8,2.06,4.1,1.08Z" transform="translate(-524.22 -378.97)"/><path class="cls-1" d="M527.22,624c7.59.9,15.34-.78,22.36-3.62,1.58-.64,3.13-1.37,4.72-2a35.66,35.66,0,0,0,5-2.24c3.23-1.92,6.52-3.74,9.9-5.39,6.33-3.08,13.14-5.64,20.16-6.52a38.69,38.69,0,0,1,10.31,0,46.82,46.82,0,0,1,10.7,3.23c7.24,2.92,14.24,6.4,21.43,9.45a90.83,90.83,0,0,0,22.87,6.73,81.56,81.56,0,0,0,23.66-.13c7.8-1.18,15.09-3.86,22.5-6.46S715.5,612,723,609.94c3.72-1,7.47-1.88,11.25-2.6A55,55,0,0,1,745.39,606a25.88,25.88,0,0,1,4.31.38,3.07,3.07,0,0,0,3.69-2.09,3,3,0,0,0-2.09-3.69c-7.57-1.45-15.31.14-22.72,1.78a215,215,0,0,0-22.13,6.38c-7.46,2.52-14.82,5.6-22.46,7.51a74.62,74.62,0,0,1-22.82,2.07,76.12,76.12,0,0,1-22.33-5c-7.35-2.83-14.42-6.33-21.64-9.47a101.15,101.15,0,0,0-11.09-4.35,40.75,40.75,0,0,0-11.24-1.64,57.9,57.9,0,0,0-21.51,4.47,110.57,110.57,0,0,0-10.6,4.9c-3,1.6-5.91,3.63-9.08,4.92-6.76,2.76-13.4,5.71-20.83,6a35.31,35.31,0,0,1-5.63-.22c-1.61-.19-3,1.52-3,3a3.07,3.07,0,0,0,3,3Z" transform="translate(-524.22 -378.97)"/></svg>