<svg id="Layer_1" data-name="Layer 1" xmlns="http://www.w3.org/2000/svg" viewBox="0 0 496.2 496.22"><defs><style>.cls-1{fill:#e2e6e8;}</style></defs><title>instagram-icon</title><path class="cls-1" d="M505,257c0,35.8.1,71.6,0,107.5-.2,52-24.4,90.5-67.6,117.7C412.1,498,384,505,354.2,505c-65.2,0-130.3.3-195.5-.1-45.3-.3-84.3-16.3-115.2-49.9A128.3,128.3,0,0,1,9.7,381.4a153.16,153.16,0,0,1-.8-17.9q0-107,0-213.9C9.2,97.5,33.4,59,76.6,31.8,102.1,15.9,130.3,9,160.3,9c65,0,130-.3,195,.1,45.5.3,84.6,16.4,115.5,50.2a127.88,127.88,0,0,1,33.4,73.2c1.3,11,.7,22,.8,32.9C505.1,196,505,226.5,505,257ZM46,257c0,36.7-.1,73.3,0,110,.1,25.2,9.3,46.9,26.5,64.9,23.1,24.1,51.9,35.8,85,36,65.7.4,131.3.1,197,.1,21.2,0,41.4-4.6,59.8-15.2,34.4-19.7,53.8-48.7,53.8-89.3V147c0-25-9.1-46.6-26.2-64.5C419,58.3,390.1,46.4,357.1,46.2,290.7,45.7,224.4,46,158,46A116.56,116.56,0,0,0,99.7,61.1C65.4,80.9,45.9,109.9,46,150.5Z" transform="translate(-8.86 -8.89)"/><path class="cls-1" d="M257.3,363c-64.6,0-116.4-51.6-116.3-116,.1-62.7,52.6-114.1,116.7-114,64.4,0,116.4,51.7,116.3,115.5C373.9,311.7,321.6,363,257.3,363Zm0-37c43.9,0,79.7-34.9,79.7-77.8,0-43.1-35.5-78.2-79.3-78.2S178,204.9,178,247.8C178,290.9,213.5,326,257.3,326Z" transform="translate(-8.86 -8.89)"/><path class="cls-1" d="M363,123.6c0-14.2,10.9-25.6,24.5-25.6S412,109.5,412,123.6c0,13.9-10.9,25.3-24.3,25.4C374.1,149.1,363,137.8,363,123.6Z" transform="translate(-8.86 -8.89)"/></svg>