<svg xmlns="http://www.w3.org/2000/svg" viewBox="0 0 99.04 99.04"><defs><style>.cls-1{fill:#373737;}.cls-2{fill:#fdfdfd;}</style></defs><title>mail</title><g id="Layer_2" data-name="Layer 2"><g id="_16" data-name="16"><path class="cls-1" d="M49.52,0a49.51,49.51,0,1,1-35,14.5A49.39,49.39,0,0,1,49.52,0ZM81.79,17.25A45.64,45.64,0,1,0,95.17,49.52,45.47,45.47,0,0,0,81.79,17.25Z"/><circle class="cls-1" cx="49.52" cy="49.52" r="46"/><path class="cls-2" d="M49.52,25.52H70.85a10.21,10.21,0,0,1,8.66,4.23,9.3,9.3,0,0,1,2,5.54c0,4.08,0,8.16,0,12.23,0,5.2,0,10.39,0,15.58a10.11,10.11,0,0,1-7,9.82,11.68,11.68,0,0,1-3.63.57q-21.4,0-42.81,0A10.28,10.28,0,0,1,17.53,63q0-13.51,0-27a10.23,10.23,0,0,1,7.9-10.18,14.64,14.64,0,0,1,3-.29C35.43,25.51,42.47,25.52,49.52,25.52Zm0,45q10.63,0,21.26,0c4.69,0,7.74-3.06,7.74-7.76q0-13.23,0-26.46c0-4.75-3-7.79-7.78-7.79H28.29c-4.74,0-7.78,3-7.78,7.8V62.77a11.91,11.91,0,0,0,.06,1.34A7.26,7.26,0,0,0,28,70.52Q38.74,70.54,49.52,70.52Z"/><path class="cls-2" d="M56.78,52.06a11.19,11.19,0,0,1-.91,1.19C54.25,54.85,52.61,56.44,51,58c-1.13,1.11-1.8,1.1-3,0l-5.24-5.12-.62-.58c-.24.2-.45.37-.65.56L28.77,65c-.31.3-.61.6-.94.87a1.53,1.53,0,0,1-2.28-.08,1.46,1.46,0,0,1,.23-2.19c2.68-2.56,5.37-5.09,8-7.64l5.63-5.33c.14-.13.26-.27.63-.67a2.83,2.83,0,0,1-.77-.42Q32.6,43,25.92,36.44c-.22-.22-.44-.43-.64-.67a1.37,1.37,0,0,1,.06-1.87,1.45,1.45,0,0,1,2-.29,5.77,5.77,0,0,1,.7.61L48.81,54.47l.7.66.66-.61L71,34.26c.19-.18.38-.36.58-.52a1.45,1.45,0,0,1,2.15.17,1.36,1.36,0,0,1-.08,2c-1,1-2,2-3,3L59.82,49.41a5.67,5.67,0,0,1-.68.5l0,.31a6.66,6.66,0,0,1,.75.52L73.3,63.46c1,.93.94,2-.08,2.6a1.33,1.33,0,0,1-1.6,0,13.23,13.23,0,0,1-1.13-1L57.65,52.85C57.45,52.65,57.23,52.47,56.78,52.06Z"/></g></g></svg>