<svg xmlns="http://www.w3.org/2000/svg" viewBox="0 0 99.06 99.04"><defs><style>.cls-1{fill:#373737;}.cls-2{fill:#fdfdfd;fill-rule:evenodd;}</style></defs><title>phone</title><g id="Layer_2" data-name="Layer 2"><g id="_16" data-name="16"><path class="cls-1" d="M49.55,0a49.51,49.51,0,1,1-35,14.5A49.41,49.41,0,0,1,49.55,0ZM81.82,17.25A45.64,45.64,0,1,0,95.2,49.52,45.54,45.54,0,0,0,81.82,17.25Z"/><circle class="cls-1" cx="49.53" cy="49.52" r="46"/><path class="cls-2" d="M53.58,32.52c-1.1-.14-2.5-.6-2.75.85s1.29,1.4,2.31,1.62c6.91,1.51,9.26,4,10.42,10.66a5.64,5.64,0,0,1,.08.93c.08.8.27,1.51,1.48,1.29A.86.86,0,0,0,66,47c.08-.42,0-1,0-1.35,0-6.44-5.59-12.28-12.44-13.13Zm.63,5.29c-.72,0-1.43.08-1.7.85-.42,1.1.44,1.4,1.28,1.54A4.93,4.93,0,0,1,58.4,45a2,2,0,0,0,.33.94,1.07,1.07,0,0,0,.93.35,1.37,1.37,0,0,0,.61-.16,1.9,1.9,0,0,0,.49-1.7c.05-3.1-3.51-6.69-6.55-6.61ZM68.52,59.53c-1.4-1.1-2.94-2.09-4.36-3.1-2.93-2-5.62-2.14-7.79,1.07-1.23,1.81-3,1.89-4.74,1.09a20.52,20.52,0,0,1-11-10.5A6.44,6.44,0,0,1,40,45.9,3.77,3.77,0,0,1,42,42.42c1.23-.8,2.44-1.76,2.36-3.54-.11-2.33-5.87-10.09-8.17-10.94a4.56,4.56,0,0,0-2.83,0C28,29.72,25.8,34,27.91,39.07a60.55,60.55,0,0,0,4,8c6.56,11,16.21,19,28.66,24.21a12.75,12.75,0,0,0,2.33.63c3.48,0,7.54-3.26,8.71-6.5s-1.26-4.36-3.12-5.89Zm-17.14-30c11.16,1.7,16.29,6.91,17.71,17.91v.27c.09,1-.1,2.33,1.24,2.33,1.18,0,1.23-.85,1.23-1.7a4.52,4.52,0,0,1,0-.79c.13-10.4-9.11-20.05-19.8-20.38-.85.14-2.49-.54-2.63,1.24,0,1.18,1.37,1,2.3,1.12Z"/></g></g></svg>