<svg id="Layer_1" data-name="Layer 1" xmlns="http://www.w3.org/2000/svg" viewBox="0 0 1408 1408"><defs><style>.cls-1{fill:#e2e6e8;}</style></defs><title>phone-icon</title><path class="cls-1" d="M1600,1240q0,27-10,70.5t-21,68.5q-21,50-122,106-94,51-186,51a386.3,386.3,0,0,1-52.5-3.5Q1183,1529,1151,1520t-47.5-14.5Q1088,1500,1048,1485t-49-18q-98-35-175-83-128-79-264.5-215.5T344,904q-48-77-83-175-3-9-18-49t-20.5-55.5Q217,609,208,577t-12.5-57.5A386.3,386.3,0,0,1,192,467q0-92,51-186,56-101,106-122,25-11,68.5-21T488,128q14,0,21,3,18,6,53,76,11,19,30,54t35,63.5Q643,353,658,378q3,4,17.5,25T697,438.5q7,14.5,7,28.5,0,20-28.5,50a488,488,0,0,1-62,55,602.58,602.58,0,0,0-62,53Q523,653,523,671q0,9,5,22.5a218.69,218.69,0,0,0,8.5,20.5q3.5,7,14,24T562,757q76,137,174,235t235,174q2,1,19,11.5t24,14a218.69,218.69,0,0,0,20.5,8.5q13.5,5,22.5,5,18,0,46-28.5a602.58,602.58,0,0,0,53-62,488,488,0,0,1,55-62q30-28.5,50-28.5,14,0,28.5,7t35.5,21.5q21,14.51,25,17.5,25,15,53.5,31t63.5,35q35,19,54,30,70,35,76,53Q1600,1226,1600,1240Z" transform="translate(-192 -128)"/></svg>