<svg id="Layer_1" data-name="Layer 1" xmlns="http://www.w3.org/2000/svg" viewBox="0 0 442.46 151.01"><defs><style>.cls-1{fill:#e75b11;}</style></defs><title>boatie-logo-no-tag</title><path class="cls-1" d="M272.13,310.84q0,11.88-10.3,18.55-7.58,4.85-21.7,4.85h-41.7c-1,0-1.52-.28-1.52-.85s1.58-1.62,4.73-3.27Q207.7,327,209.1,323q.72-1.89.72-9V271.93q0-7-.72-8.91-1.33-3.93-7.46-7.15-4.72-2.43-4.73-3.39c0-.65.51-1,1.52-1h41q9.51,0,14.67,1.75Q267,257.63,267,271.39q0,13-16.37,17.57a64.15,64.15,0,0,1,8.13,1.82,19.06,19.06,0,0,1,7.45,4.61q5.94,5.94,5.94,15.39ZM255,271.63q0-13.15-18.33-13.15-9.27,0-12,1.45-3.51,1.81-3.51,8.3v18.13h13.13Q255,286.36,255,271.63Zm4.24,38.79q0-9.76-7.56-14.43-4.78-2.85-16.58-2.85H221.16v27.7q0,5,4.47,6.37c1.46.44,4.38.66,8.78.66q24.81,0,24.81-17.51Z" transform="translate(-196.91 -222.14)"/><path class="cls-1" d="M453.23,333.75c0,.41-.4.61-1.21.61H422.93c-.73,0-1.09-.2-1.09-.61a9.52,9.52,0,0,1,.84-1q7.95-5,7.94-8.36a10.6,10.6,0,0,0-.6-3.09l-5.94-19.22H395.9l-6.73,19.22a10.73,10.73,0,0,0-.73,3.09q0,1.88,2.3,3.82a18.58,18.58,0,0,0,2,1.57q1.55,1.1,4.16,2.85c.44.45.66.75.66.91,0,.49-.34.73-1,.73H369.29c-.93,0-1.4-.2-1.4-.61,0-.24.25-.54.73-.91a44.93,44.93,0,0,0,6.67-4.91,17.2,17.2,0,0,0,4-6.54l19.39-53.64a17.84,17.84,0,0,0,1.34-5.21q0-3-7-8.55a13.06,13.06,0,0,1-1.64-1.76c0-.4.42-.6,1.27-.6h39c.57,0,.85.24.85.72s-.54,1-1.63,1.76q-7.46,5.58-7.46,8a19.33,19.33,0,0,0,1.27,5.64l17,52a17.89,17.89,0,0,0,3.09,6.18,50.35,50.35,0,0,0,6.3,5.64c1.41,1.17,2.12,1.9,2.12,2.18ZM410.56,258.9l-12.3,35.88h23.46Z" transform="translate(-196.91 -222.14)"/><path class="cls-1" d="M519.42,278.36c0,1.09-.27,1.63-.91,1.63-.4,0-1-.95-1.88-2.85q-4.61-11-8.12-14.18-5.22-4.84-17-5v58.49a22.73,22.73,0,0,0,.36,5.45q1,2.91,7.58,7.16c4.12,2.62,6.18,4.14,6.18,4.54s-.36.73-1.09.73H466.69c-.81,0-1.21-.24-1.21-.73s.36-.83,1.09-1.27q9.69-5.88,11.82-8.55,1.75-2.29,1.75-8.12V257.87q-9.81-.12-15.39,3.64-6.18,4.19-9.64,14.66c-.65,2-1.31,3-2,3-.48,0-.73-.34-.73-1a1.82,1.82,0,0,1,.06-.54,1.79,1.79,0,0,0,.07-.55l2.84-25.57c0-.93.33-1.4,1-1.4a3,3,0,0,1,.55.3,8.43,8.43,0,0,0,4.61,1.1h50.85a8,8,0,0,0,4.18-1.1.82.82,0,0,1,.54-.12c.65,0,1,.41,1.1,1.22l1.27,26.78Z" transform="translate(-196.91 -222.14)"/><path class="cls-1" d="M561.91,333.21c0,.64-.51,1-1.52,1H526.27c-1,0-1.52-.33-1.52-1q0-.61,4.73-3.09Q535.54,327,537,323q.66-2,.66-9V271.81q0-6.92-.66-8.91-1.47-4.06-7.52-7.15-4.72-2.43-4.73-3.27c0-.65.51-1,1.52-1h34.12c1,0,1.52.32,1.52,1s-1.58,1.65-4.73,3.27q-6.06,3.15-7.52,7.15-.66,2.13-.66,9v42.19q0,6.84.66,9,1.46,4,7.52,7.15c3.15,1.65,4.73,2.69,4.73,3.09Z" transform="translate(-196.91 -222.14)"/><path class="cls-1" d="M637.36,334.3c-.08.81-.44,1.21-1.09,1.21a6.6,6.6,0,0,1-2-.6,6.39,6.39,0,0,0-2.36-.61H569.6c-1,0-1.51-.28-1.51-.85s1.57-1.62,4.73-3.27q6.06-3.15,7.45-7.09.74-1.89.73-9V272q0-7-.73-8.91-1.34-3.93-7.45-7.15c-3.16-1.61-4.73-2.75-4.73-3.39s.5-1,1.51-1h58.55c1.94,0,3.19-.2,3.76-.61l1.7-.91c.52,0,.82.55.91,1.64l1,26.79c0,1-.21,1.51-.73,1.51s-1-.46-1.27-1.39q-5.4-12.42-10.73-16.31t-16.19-3.75c-5,0-8.06.14-9.15.42q-4.67,1.28-5,6.49c0,.4-.07.86-.09,1.36s0,1.08,0,1.73v17.33H597q7.21,0,9.88-1.39,3.33-1.82,6-8.55c1.53-3.72,2.5-5.57,2.91-5.57s.66.42.66,1.27v34.49c0,1-.26,1.51-.78,1.51a1,1,0,0,1-.91-.67q-3.76-9.51-6.37-11.81-3-2.61-11.69-2.61h-4.37v22.85c0,4.52.89,7.64,2.67,9.33q3.27,3.09,13,3.09,10.66,0,17.27-5.39a33.68,33.68,0,0,0,7.4-8.73,39.43,39.43,0,0,0,4.36-9.76c.53-2.06,1.07-3.09,1.64-3.09s.77.39.72,1.15Z" transform="translate(-196.91 -222.14)"/><path class="cls-1" d="M370.33,339.3c-5.46-2.05-6.41-4.73-6.41-4.73s1.29-1.3.56-2-1.59.12-1.59.12a.89.89,0,0,0-.06-1.32,1.19,1.19,0,0,0-1.47-.21c.54-2.74-2.34-5.08-2.34-5.08l-.42.33a46.35,46.35,0,0,0-.25-57.8l.11.08s2.87-2.33,2.33-5.08a1.21,1.21,0,0,0,1.48-.2.91.91,0,0,0,.05-1.33s.86.86,1.59.13-.56-2-.56-2,.95-2.68,6.42-4.73,9.33-7.55,5.72-11.17l-.57-.57c-3.62-3.61-9.12.26-11.17,5.72s-4.73,6.42-4.73,6.42-1.3-1.29-2-.56.13,1.59.13,1.59a.91.91,0,0,0-1.33,0,1.21,1.21,0,0,0-.2,1.48c-2.75-.54-5.08,2.33-5.08,2.33l.33.43a46.31,46.31,0,0,0-23.56-9.7h0s.39-3.68-1.94-5.24a1.21,1.21,0,0,0,.9-1.19.91.91,0,0,0-.9-1s1.22,0,1.22-1-1.84-1-1.84-1-1.22-2.57,1.2-7.88,1.26-11.94-3.85-11.94h-.81c-5.11,0-6.26,6.62-3.85,11.94s1.2,7.88,1.2,7.88-1.84,0-1.84,1,1.22,1,1.22,1a.91.91,0,0,0-.9,1,1.21,1.21,0,0,0,.9,1.19c-2.33,1.56-1.94,5.24-1.94,5.24l.44.05a46.39,46.39,0,0,0-23.49,9.9l.09-.11s-2.33-2.87-5.08-2.33a1.21,1.21,0,0,0-.2-1.48.91.91,0,0,0-1.33-.05s.85-.86.12-1.59-2,.56-2,.56-2.68-.95-4.73-6.42-7.55-9.33-11.16-5.72l-.57.57c-3.62,3.61.26,9.12,5.72,11.17s6.42,4.73,6.42,4.73-1.29,1.3-.57,2,1.59-.13,1.59-.13a.91.91,0,0,0,.06,1.33,1.21,1.21,0,0,0,1.48.2c-.55,2.75,2.33,5.08,2.33,5.08l.42-.33a46.34,46.34,0,0,0,.26,57.81l-.11-.09s-2.88,2.33-2.34,5.08a1.2,1.2,0,0,0-1.47.2.91.91,0,0,0-.06,1.33s-.86-.85-1.59-.12.57,2,.57,2-1,2.68-6.42,4.73-9.34,7.55-5.72,11.16l.57.57c3.61,3.61,9.11-.26,11.16-5.72s4.73-6.42,4.73-6.42,1.3,1.29,2,.56-.12-1.59-.12-1.59a.9.9,0,0,0,1.32-.05,1.21,1.21,0,0,0,.21-1.48c2.74.55,5.07-2.33,5.07-2.33l-.32-.42a46.23,46.23,0,0,0,23.56,9.69h0s-.39,3.69,1.94,5.24a1.21,1.21,0,0,0-.9,1.19.91.91,0,0,0,.9,1s-1.21,0-1.21,1,1.83,1,1.83,1,1.22,2.57-1.19,7.89-1.26,11.94,3.85,11.94h.8c5.11,0,6.27-6.63,3.85-11.94s-1.19-7.89-1.19-7.89,1.83,0,1.83-1-1.21-1-1.21-1a.91.91,0,0,0,.9-1,1.21,1.21,0,0,0-.9-1.19c2.32-1.55,1.94-5.24,1.94-5.24l-.44,0a46.27,46.27,0,0,0,23.48-9.9l-.08.11s2.33,2.88,5.08,2.33a1.21,1.21,0,0,0,.2,1.48.91.91,0,0,0,1.33.06s-.86.86-.13,1.59,2-.57,2-.57,2.68,1,4.73,6.42,7.55,9.34,11.17,5.72l.56-.57C379.67,346.85,375.8,341.35,370.33,339.3Zm-13-43.27a35.11,35.11,0,0,0-9.19-22.15,2.17,2.17,0,0,0,1.53-.65,2.23,2.23,0,0,0,.63-1.27,38,38,0,0,1,9.92,23.93,2.21,2.21,0,0,0-2.89.14ZM322.1,330a32.37,32.37,0,1,1,32.36-32.37A32.37,32.37,0,0,1,322.1,330Zm24.4-59.92a2.2,2.2,0,0,0-.64,1.53,35.11,35.11,0,0,0-22.15-9.19,2.21,2.21,0,0,0,.14-2.89,38,38,0,0,1,23.93,9.92A2.29,2.29,0,0,0,346.5,270.09Zm-26-7.66a35.09,35.09,0,0,0-22.15,9.19,2.21,2.21,0,0,0-.65-1.53,2.25,2.25,0,0,0-1.28-.63,38,38,0,0,1,23.94-9.92,2.17,2.17,0,0,0-.48,1.36A2.22,2.22,0,0,0,320.49,262.43Zm-25.95,10.8a2.21,2.21,0,0,0,1.53.65A35.16,35.16,0,0,0,286.88,296a2.2,2.2,0,0,0-1.53-.61,2.24,2.24,0,0,0-1.36.47A38,38,0,0,1,293.92,272,2.15,2.15,0,0,0,294.54,273.23Zm-9.19,26.64a2.21,2.21,0,0,0,1.53-.62,35.14,35.14,0,0,0,9.19,22.15,2.25,2.25,0,0,0-1.53.65,2.18,2.18,0,0,0-.62,1.28A38,38,0,0,1,284,299.39,2.19,2.19,0,0,0,285.35,299.87Zm12.34,25.33a2.25,2.25,0,0,0,.65-1.54,35.1,35.1,0,0,0,22.15,9.2,2.18,2.18,0,0,0-.14,2.89,38,38,0,0,1-23.94-9.93A2.18,2.18,0,0,0,297.69,325.2Zm26,7.66a35.12,35.12,0,0,0,22.15-9.2,2.24,2.24,0,0,0,.64,1.54,2.21,2.21,0,0,0,1.28.62,38,38,0,0,1-23.93,9.93,2.25,2.25,0,0,0,.47-1.37A2.19,2.19,0,0,0,323.71,332.86Zm25.94-10.81a2.21,2.21,0,0,0-1.53-.65,35.09,35.09,0,0,0,9.19-22.15,2.22,2.22,0,0,0,1.53.62,2.17,2.17,0,0,0,1.36-.48,38,38,0,0,1-9.92,23.94A2.25,2.25,0,0,0,349.65,322.05Z" transform="translate(-196.91 -222.14)"/></svg>