<?xml version="1.0" encoding="utf-8"?>
<!-- Generator: Adobe Illustrator 23.1.1, SVG Export Plug-In . SVG Version: 6.00 Build 0)  -->
<svg version="1.1" id="Layer_1" xmlns="http://www.w3.org/2000/svg" xmlns:xlink="http://www.w3.org/1999/xlink" x="0px" y="0px"
	 viewBox="0 0 1869.6 360.7" style="enable-background:new 0 0 1869.6 360.7;" xml:space="preserve">
<style type="text/css">
	.st0{fill:#E88C00;}
	.st1{opacity:0.551;fill:#FF863C;enable-background:new    ;}
	.st2{fill:#F8F6F3;}
</style>
<path id="Path_20" class="st0" d="M2014.9,101.6c-317.6,6.4-375.8,130.2-767.5,159.6S588.4,139.9,337,129.7s-524,81.7-524,81.7
	v111.3l2202-0.3V101.6z"/>
<path id="Path_32" class="st1" d="M2027.4,6.2c-317.6,6.4-353.1,194.7-744.9,224S545.3,101.9,293.8,91.7s-480.9,123-480.9,123v143.9
	l2202-0.3L2027.4,6.2z"/>
<path id="Path_1" class="st2" d="M2014.9,139.6c-317.6,6.4-375.8,130.2-767.5,159.6S588.4,177.9,337,167.7s-524,81.7-524,81.7v111.3
	l2202-0.3V139.6z"/>
</svg>
