<?xml version="1.0" standalone="no"?>
<!DOCTYPE svg PUBLIC "-//W3C//DTD SVG 20010904//EN"
 "http://www.w3.org/TR/2001/REC-SVG-20010904/DTD/svg10.dtd">
<svg version="1.0" xmlns="http://www.w3.org/2000/svg"
 width="274.000000pt" height="274.000000pt" viewBox="0 0 274.000000 274.000000"
 preserveAspectRatio="xMidYMid meet">
<metadata>
Created by potrace 1.11, written by Peter Selinger 2001-2013
</metadata>
<g transform="translate(0.000000,274.000000) scale(0.100000,-0.100000)"
fill="#000000" stroke="none">
<path d="M1334 2352 c-34 -23 -43 -87 -20 -149 25 -67 28 -93 11 -99 -10 -4
-15 -18 -14 -38 0 -17 -3 -44 -8 -60 -8 -26 -17 -31 -64 -42 -70 -16 -139 -46
-196 -85 -26 -18 -48 -27 -52 -22 -3 6 -17 14 -31 18 -14 4 -33 17 -42 27 -9
11 -21 17 -27 14 -12 -8 -53 46 -71 92 -16 41 -64 82 -96 82 -31 0 -74 -42
-74 -71 0 -32 43 -84 82 -99 18 -7 48 -24 66 -37 26 -19 31 -29 26 -46 -3 -12
-3 -19 1 -15 9 9 25 -8 48 -51 16 -31 16 -34 -2 -59 -132 -188 -136 -480 -9
-669 27 -40 28 -44 16 -83 -7 -22 -21 -43 -30 -46 -9 -3 -18 -17 -20 -32 -2
-22 -15 -33 -63 -59 -72 -38 -105 -74 -105 -113 0 -30 39 -70 67 -70 35 0 76
37 105 95 31 60 55 87 73 81 6 -1 17 4 25 13 8 9 30 24 49 34 32 17 34 16 62
-3 61 -44 160 -82 244 -94 11 -2 21 -11 23 -22 2 -10 6 -26 9 -34 3 -8 5 -27
4 -41 -1 -16 4 -29 13 -32 17 -7 13 -51 -10 -106 -28 -66 -13 -132 33 -148 79
-28 118 48 82 157 -22 69 -23 89 -4 96 9 4 13 15 11 29 -5 26 17 109 25 100
16 -15 256 86 274 115 6 10 76 -25 92 -46 6 -9 16 -13 21 -10 15 9 50 -31 77
-88 43 -91 129 -114 163 -43 22 46 -6 88 -88 131 -64 34 -87 57 -75 76 3 4 -2
10 -10 13 -8 4 -24 25 -35 47 l-21 41 29 47 c83 137 111 296 78 448 -14 64
-61 175 -95 223 -19 27 -19 29 -3 64 9 20 25 39 35 43 12 4 17 13 14 24 -6 23
13 40 78 73 28 14 59 35 70 46 23 26 25 85 5 105 -47 46 -114 17 -153 -66 -27
-58 -60 -94 -76 -84 -5 4 -16 -2 -23 -11 -7 -10 -28 -26 -47 -36 -33 -17 -34
-17 -80 11 -70 42 -160 76 -221 84 -28 3 -53 55 -45 96 2 14 -2 25 -11 29 -19
7 -18 38 5 104 22 61 19 113 -6 142 -16 17 -69 23 -89 9z m16 -503 c0 -13 -7
-19 -24 -19 -44 0 -150 -39 -205 -75 -39 -26 -57 -33 -65 -25 -22 22 88 89
197 120 81 22 97 22 97 -1z m134 6 c87 -15 238 -102 213 -123 -9 -8 -26 -2
-62 23 -54 36 -158 75 -200 75 -19 0 -25 5 -25 21 0 15 5 19 18 16 9 -3 34 -8
56 -12z m78 -108 c257 -127 318 -458 122 -667 -48 -51 -133 -101 -203 -120
-152 -40 -338 23 -433 147 -178 234 -85 556 192 661 44 16 75 20 151 19 88 -2
101 -5 171 -40z m-556 -101 c-48 -63 -82 -151 -88 -222 -2 -24 -6 -30 -20 -26
-14 3 -17 12 -13 43 8 57 33 127 66 182 41 67 51 77 66 65 10 -8 7 -17 -11
-42z m812 -44 c26 -50 39 -91 55 -170 3 -14 -1 -25 -11 -31 -15 -8 -19 0 -29
56 -12 64 -47 144 -84 191 -10 13 -15 30 -12 38 8 23 45 -15 81 -84z m-904
-274 c2 -7 10 -44 20 -82 10 -43 31 -91 56 -129 22 -32 40 -61 40 -62 0 -2 -7
-6 -15 -9 -21 -8 -90 100 -111 171 -24 83 -27 123 -9 123 9 0 17 -6 19 -12z
m960 -20 c-10 -67 -34 -135 -69 -193 -45 -74 -47 -76 -64 -66 -11 7 -8 18 16
52 39 58 72 138 80 194 4 34 10 45 23 45 15 0 17 -6 14 -32z m-789 -298 c20
-32 177 -100 232 -100 26 0 33 -4 33 -20 0 -23 -2 -24 -72 -9 -98 21 -232 96
-222 124 7 17 20 19 29 5z m598 -36 c-43 -35 -127 -73 -199 -91 -55 -14 -67
-14 -74 -3 -12 20 -3 30 29 30 43 0 143 37 197 74 36 25 52 31 62 23 10 -8 7
-15 -15 -33z"/>
</g>
</svg>
